<?xml version="1.0" encoding="UTF-8" standalone="no"?>
<!DOCTYPE svg PUBLIC "-//W3C//DTD SVG 1.1//EN"
 "http://www.w3.org/Graphics/SVG/1.1/DTD/svg11.dtd">
<!-- Generated by graphviz version 8.0.3 (20230416.2022)
 -->
<!-- Title: timeline Pages: 1 -->
<svg width="1614pt" height="577pt"
 viewBox="0.00 0.00 1614.00 576.51" xmlns="http://www.w3.org/2000/svg" xmlns:xlink="http://www.w3.org/1999/xlink">
<g id="graph0" class="graph" transform="scale(1 1) rotate(0) translate(4 572.51)">
<title>timeline</title>
<polygon fill="white" stroke="none" points="-4,4 -4,-572.51 1610,-572.51 1610,4 -4,4"/>
<g id="clust1" class="cluster">
<title>cluster_0</title>
<polygon fill="none" stroke="black" points="8,-407.51 8,-544.51 92,-544.51 92,-407.51 8,-407.51"/>
<text text-anchor="middle" x="50" y="-529.31" font-family="Times,serif" font-size="14.00">January</text>
</g>
<g id="clust2" class="cluster">
<title>cluster_1</title>
<polygon fill="none" stroke="black" points="112,-407.51 112,-544.51 208,-544.51 208,-407.51 112,-407.51"/>
<text text-anchor="middle" x="160" y="-529.31" font-family="Times,serif" font-size="14.00">February</text>
</g>
<g id="clust3" class="cluster">
<title>cluster_2</title>
<polygon fill="none" stroke="black" points="228,-28.51 228,-230.51 324,-230.51 324,-28.51 228,-28.51"/>
<text text-anchor="middle" x="276" y="-215.31" font-family="Times,serif" font-size="14.00">March</text>
</g>
<g id="clust4" class="cluster">
<title>cluster_3</title>
<polygon fill="none" stroke="black" points="344,-179.51 344,-495.51 442,-495.51 442,-179.51 344,-179.51"/>
<text text-anchor="middle" x="393" y="-480.31" font-family="Times,serif" font-size="14.00">April</text>
</g>
<g id="clust5" class="cluster">
<title>cluster_4</title>
<polygon fill="none" stroke="black" points="462,-407.51 462,-560.51 560,-560.51 560,-407.51 462,-407.51"/>
<text text-anchor="middle" x="511" y="-545.31" font-family="Times,serif" font-size="14.00">May</text>
</g>
<g id="clust6" class="cluster">
<title>cluster_5</title>
<polygon fill="none" stroke="black" points="580,-44.51 580,-377.51 678,-377.51 678,-44.51 580,-44.51"/>
<text text-anchor="middle" x="629" y="-362.31" font-family="Times,serif" font-size="14.00">June</text>
</g>
<g id="clust7" class="cluster">
<title>cluster_6</title>
<polygon fill="none" stroke="black" points="698,-238.51 698,-440.51 796,-440.51 796,-238.51 698,-238.51"/>
<text text-anchor="middle" x="747" y="-425.31" font-family="Times,serif" font-size="14.00">July</text>
</g>
<g id="clust8" class="cluster">
<title>cluster_7</title>
<polygon fill="none" stroke="black" points="816,-295.51 816,-383.51 914,-383.51 914,-295.51 816,-295.51"/>
<text text-anchor="middle" x="865" y="-368.31" font-family="Times,serif" font-size="14.00">August</text>
</g>
<g id="clust9" class="cluster">
<title>cluster_8</title>
<polygon fill="none" stroke="black" points="934,-125.51 934,-440.51 1032,-440.51 1032,-125.51 934,-125.51"/>
<text text-anchor="middle" x="983" y="-425.31" font-family="Times,serif" font-size="14.00">September</text>
</g>
<g id="clust10" class="cluster">
<title>cluster_9</title>
<polygon fill="none" stroke="black" points="1052,-291.51 1052,-428.51 1150,-428.51 1150,-291.51 1052,-291.51"/>
<text text-anchor="middle" x="1101" y="-413.31" font-family="Times,serif" font-size="14.00">October</text>
</g>
<g id="clust11" class="cluster">
<title>cluster_10</title>
<polygon fill="none" stroke="black" points="1170,-19.51 1170,-512.51 1268,-512.51 1268,-19.51 1170,-19.51"/>
<text text-anchor="middle" x="1219" y="-497.31" font-family="Times,serif" font-size="14.00">November</text>
</g>
<g id="clust12" class="cluster">
<title>cluster_11</title>
<polygon fill="none" stroke="black" points="1288.5,-282.51 1288.5,-321.51 1361.5,-321.51 1361.5,-282.51 1288.5,-282.51"/>
<text text-anchor="middle" x="1325" y="-306.31" font-family="Times,serif" font-size="14.00">December</text>
</g>
<g id="clust13" class="cluster">
<title>cluster_12</title>
<polygon fill="none" stroke="black" points="1382,-33.51 1382,-268.51 1480,-268.51 1480,-33.51 1382,-33.51"/>
<text text-anchor="middle" x="1431" y="-253.31" font-family="Times,serif" font-size="14.00">January</text>
</g>
<g id="clust14" class="cluster">
<title>cluster_13</title>
<polygon fill="none" stroke="black" points="1500,-352.51 1500,-489.51 1598,-489.51 1598,-352.51 1500,-352.51"/>
<text text-anchor="middle" x="1549" y="-474.31" font-family="Times,serif" font-size="14.00">February</text>
</g>
<!-- order_node_0 -->
<!-- order_node_1 -->
<!-- order_node_0&#45;&gt;order_node_1 -->
<!-- node_0 -->
<g id="node2" class="node">
<title>node_0</title>
<g id="a_node2"><a xlink:href="http://www.ijcai.org/" xlink:title="International Joint Conference on Artificial Intelligence" target="_blank">
<polygon fill="none" stroke="black" points="84,-464.51 16,-464.51 16,-426.51 84,-426.51 84,-464.51"/>
<text text-anchor="middle" x="50" y="-449.31" font-family="Times,serif" font-size="14.00">IJCAI</text>
<text text-anchor="middle" x="50" y="-434.31" font-family="Times,serif" font-size="14.00">Abstracts</text>
</a>
</g>
</g>
<!-- node_2 -->
<g id="node5" class="node">
<title>node_2</title>
<g id="a_node5"><a xlink:href="http://www.ijcai.org/" xlink:title="International Joint Conference on Artificial Intelligence" target="_blank">
<polygon fill="none" stroke="black" points="200,-464.51 120,-464.51 120,-426.51 200,-426.51 200,-464.51"/>
<text text-anchor="middle" x="160" y="-449.31" font-family="Times,serif" font-size="14.00">IJCAI</text>
<text text-anchor="middle" x="160" y="-434.31" font-family="Times,serif" font-size="14.00">Submission</text>
</a>
</g>
</g>
<!-- node_0&#45;&gt;node_2 -->
<g id="edge1" class="edge">
<title>node_0&#45;&gt;node_2</title>
<path fill="none" stroke="black" d="M84.28,-445.51C92.04,-445.51 100.47,-445.51 108.78,-445.51"/>
<polygon fill="black" stroke="black" points="108.57,-449.01 118.57,-445.51 108.57,-442.01 108.57,-449.01"/>
</g>
<!-- node_1 -->
<g id="node3" class="node">
<title>node_1</title>
<g id="a_node3"><a xlink:href="https://icml.cc" xlink:title="Conference on Neural Information Processing Systems" target="_blank">
<polygon fill="none" stroke="black" points="84,-513.51 16,-513.51 16,-475.51 84,-475.51 84,-513.51"/>
<text text-anchor="middle" x="50" y="-498.31" font-family="Times,serif" font-size="14.00">ICML</text>
<text text-anchor="middle" x="50" y="-483.31" font-family="Times,serif" font-size="14.00">Abstracts</text>
</a>
</g>
</g>
<!-- node_3 -->
<g id="node6" class="node">
<title>node_3</title>
<g id="a_node6"><a xlink:href="https://icml.cc" xlink:title="Conference on Neural Information Processing Systems" target="_blank">
<polygon fill="none" stroke="black" points="200,-513.51 120,-513.51 120,-475.51 200,-475.51 200,-513.51"/>
<text text-anchor="middle" x="160" y="-498.31" font-family="Times,serif" font-size="14.00">ICML</text>
<text text-anchor="middle" x="160" y="-483.31" font-family="Times,serif" font-size="14.00">Submission</text>
</a>
</g>
</g>
<!-- node_1&#45;&gt;node_3 -->
<g id="edge3" class="edge">
<title>node_1&#45;&gt;node_3</title>
<path fill="none" stroke="black" d="M84.28,-494.51C92.04,-494.51 100.47,-494.51 108.78,-494.51"/>
<polygon fill="black" stroke="black" points="108.57,-498.01 118.57,-494.51 108.57,-491.01 108.57,-498.01"/>
</g>
<!-- order_node_2 -->
<!-- order_node_1&#45;&gt;order_node_2 -->
<!-- node_7 -->
<g id="node12" class="node">
<title>node_7</title>
<g id="a_node12"><a xlink:href="http://www.ijcai.org/" xlink:title="International Joint Conference on Artificial Intelligence" target="_blank">
<polygon fill="none" stroke="black" points="434,-464.51 352,-464.51 352,-426.51 434,-426.51 434,-464.51"/>
<text text-anchor="middle" x="393" y="-449.31" font-family="Times,serif" font-size="14.00">IJCAI</text>
<text text-anchor="middle" x="393" y="-434.31" font-family="Times,serif" font-size="14.00">Notification</text>
</a>
</g>
</g>
<!-- node_2&#45;&gt;node_7 -->
<g id="edge2" class="edge">
<title>node_2&#45;&gt;node_7</title>
<path fill="none" stroke="black" d="M200.45,-445.51C239.13,-445.51 298.3,-445.51 340.63,-445.51"/>
<polygon fill="black" stroke="black" points="340.55,-449.01 350.55,-445.51 340.55,-442.01 340.55,-449.01"/>
</g>
<!-- node_13 -->
<g id="node19" class="node">
<title>node_13</title>
<g id="a_node19"><a xlink:href="https://icml.cc" xlink:title="Conference on Neural Information Processing Systems" target="_blank">
<polygon fill="none" stroke="black" points="552,-529.51 470,-529.51 470,-491.51 552,-491.51 552,-529.51"/>
<text text-anchor="middle" x="511" y="-514.31" font-family="Times,serif" font-size="14.00">ICML</text>
<text text-anchor="middle" x="511" y="-499.31" font-family="Times,serif" font-size="14.00">Notification</text>
</a>
</g>
</g>
<!-- node_3&#45;&gt;node_13 -->
<g id="edge4" class="edge">
<title>node_3&#45;&gt;node_13</title>
<path fill="none" stroke="black" d="M200.36,-496.32C263.81,-499.23 388.7,-504.95 458.93,-508.17"/>
<polygon fill="black" stroke="black" points="458.56,-511.7 468.71,-508.67 458.88,-504.71 458.56,-511.7"/>
</g>
<!-- order_node_3 -->
<!-- order_node_2&#45;&gt;order_node_3 -->
<!-- node_4 -->
<g id="node8" class="node">
<title>node_4</title>
<g id="a_node8"><a xlink:href="http://auai.org/uai2017/index.php" xlink:title="Conference on Uncertainty in Artificial Intelligence" target="_blank">
<polygon fill="none" stroke="black" points="316,-139.51 236,-139.51 236,-101.51 316,-101.51 316,-139.51"/>
<text text-anchor="middle" x="276" y="-124.31" font-family="Times,serif" font-size="14.00">UAI</text>
<text text-anchor="middle" x="276" y="-109.31" font-family="Times,serif" font-size="14.00">Submission</text>
</a>
</g>
</g>
<!-- node_16 -->
<g id="node23" class="node">
<title>node_16</title>
<g id="a_node23"><a xlink:href="http://auai.org/uai2017/index.php" xlink:title="Conference on Uncertainty in Artificial Intelligence" target="_blank">
<polygon fill="none" stroke="black" points="670,-139.51 588,-139.51 588,-101.51 670,-101.51 670,-139.51"/>
<text text-anchor="middle" x="629" y="-124.31" font-family="Times,serif" font-size="14.00">UAI</text>
<text text-anchor="middle" x="629" y="-109.31" font-family="Times,serif" font-size="14.00">Notification</text>
</a>
</g>
</g>
<!-- node_4&#45;&gt;node_16 -->
<g id="edge5" class="edge">
<title>node_4&#45;&gt;node_16</title>
<path fill="none" stroke="black" d="M316.24,-120.51C380,-120.51 506.08,-120.51 576.8,-120.51"/>
<polygon fill="black" stroke="black" points="576.66,-124.01 586.66,-120.51 576.66,-117.01 576.66,-124.01"/>
</g>
<!-- node_5 -->
<g id="node9" class="node">
<title>node_5</title>
<g id="a_node9"><a xlink:href="http://www.iros.org/" xlink:title="International Conference on Intelligent Robots and Systems" target="_blank">
<polygon fill="none" stroke="black" points="316,-188.51 236,-188.51 236,-150.51 316,-150.51 316,-188.51"/>
<text text-anchor="middle" x="276" y="-173.31" font-family="Times,serif" font-size="14.00">IROS</text>
<text text-anchor="middle" x="276" y="-158.31" font-family="Times,serif" font-size="14.00">Submission</text>
</a>
</g>
</g>
<!-- node_17 -->
<g id="node24" class="node">
<title>node_17</title>
<g id="a_node24"><a xlink:href="http://www.iros.org/" xlink:title="International Conference on Intelligent Robots and Systems" target="_blank">
<polygon fill="none" stroke="black" points="670,-188.51 588,-188.51 588,-150.51 670,-150.51 670,-188.51"/>
<text text-anchor="middle" x="629" y="-173.31" font-family="Times,serif" font-size="14.00">IROS</text>
<text text-anchor="middle" x="629" y="-158.31" font-family="Times,serif" font-size="14.00">Notification</text>
</a>
</g>
</g>
<!-- node_5&#45;&gt;node_17 -->
<g id="edge6" class="edge">
<title>node_5&#45;&gt;node_17</title>
<path fill="none" stroke="black" d="M316.24,-169.51C380,-169.51 506.08,-169.51 576.8,-169.51"/>
<polygon fill="black" stroke="black" points="576.66,-173.01 586.66,-169.51 576.66,-166.01 576.66,-173.01"/>
</g>
<!-- node_6 -->
<g id="node10" class="node">
<title>node_6</title>
<g id="a_node10"><a xlink:href="https://www.thecvf.com" xlink:title="International Conference on Computer Vision" target="_blank">
<polygon fill="none" stroke="black" points="316,-90.01 236,-90.01 236,-37.01 316,-37.01 316,-90.01"/>
<text text-anchor="middle" x="276" y="-74.81" font-family="Times,serif" font-size="14.00">ICCV</text>
<text text-anchor="middle" x="276" y="-59.81" font-family="Times,serif" font-size="14.00">Abstracts</text>
<text text-anchor="middle" x="276" y="-44.81" font-family="Times,serif" font-size="14.00">Submission</text>
</a>
</g>
</g>
<!-- node_21 -->
<g id="node29" class="node">
<title>node_21</title>
<g id="a_node29"><a xlink:href="https://www.thecvf.com" xlink:title="International Conference on Computer Vision" target="_blank">
<polygon fill="none" stroke="black" points="788,-284.51 706,-284.51 706,-246.51 788,-246.51 788,-284.51"/>
<text text-anchor="middle" x="747" y="-269.31" font-family="Times,serif" font-size="14.00">ICCV</text>
<text text-anchor="middle" x="747" y="-254.31" font-family="Times,serif" font-size="14.00">Notification</text>
</a>
</g>
</g>
<!-- node_6&#45;&gt;node_21 -->
<g id="edge7" class="edge">
<title>node_6&#45;&gt;node_21</title>
<path fill="none" stroke="black" d="M316.44,-46.49C394.17,-15.86 569.03,38.18 678,-42.51 709.34,-65.72 732.03,-180.37 741.34,-235.63"/>
<polygon fill="black" stroke="black" points="737.99,-235.86 743.07,-245.15 744.9,-234.72 737.99,-235.86"/>
</g>
<!-- order_node_4 -->
<!-- order_node_3&#45;&gt;order_node_4 -->
<!-- node_8 -->
<g id="node13" class="node">
<title>node_8</title>
<g id="a_node13"><a xlink:href="http://www.ecai2016.org/" xlink:title="European Conference on Artificial Intelligence" target="_blank">
<polygon fill="none" stroke="black" points="433,-339.51 353,-339.51 353,-301.51 433,-301.51 433,-339.51"/>
<text text-anchor="middle" x="393" y="-324.31" font-family="Times,serif" font-size="14.00">ECAI</text>
<text text-anchor="middle" x="393" y="-309.31" font-family="Times,serif" font-size="14.00">Submission</text>
</a>
</g>
</g>
<!-- node_14 -->
<g id="node21" class="node">
<title>node_14</title>
<g id="a_node21"><a xlink:href="http://www.ecai2016.org/" xlink:title="European Conference on Artificial Intelligence" target="_blank">
<polygon fill="none" stroke="black" points="670,-335.51 588,-335.51 588,-297.51 670,-297.51 670,-335.51"/>
<text text-anchor="middle" x="629" y="-320.31" font-family="Times,serif" font-size="14.00">ECAI</text>
<text text-anchor="middle" x="629" y="-305.31" font-family="Times,serif" font-size="14.00">Notification</text>
</a>
</g>
</g>
<!-- node_8&#45;&gt;node_14 -->
<g id="edge8" class="edge">
<title>node_8&#45;&gt;node_14</title>
<path fill="none" stroke="black" d="M433.43,-319.84C472.85,-319.17 533.65,-318.13 576.79,-317.39"/>
<polygon fill="black" stroke="black" points="576.68,-320.87 586.62,-317.2 576.56,-313.87 576.68,-320.87"/>
</g>
<!-- node_9 -->
<g id="node14" class="node">
<title>node_9</title>
<g id="a_node14"><a xlink:href="http://wibih.unomaha.edu/wi" xlink:title="International Conference on Intelligent Agent Technology" target="_blank">
<polygon fill="none" stroke="black" points="433,-290.51 353,-290.51 353,-252.51 433,-252.51 433,-290.51"/>
<text text-anchor="middle" x="393" y="-275.31" font-family="Times,serif" font-size="14.00">IAT</text>
<text text-anchor="middle" x="393" y="-260.31" font-family="Times,serif" font-size="14.00">Submission</text>
</a>
</g>
</g>
<!-- node_15 -->
<g id="node22" class="node">
<title>node_15</title>
<g id="a_node22"><a xlink:href="http://wibih.unomaha.edu/wi" xlink:title="International Conference on Intelligent Agent Technology" target="_blank">
<polygon fill="none" stroke="black" points="670,-286.51 588,-286.51 588,-248.51 670,-248.51 670,-286.51"/>
<text text-anchor="middle" x="629" y="-271.31" font-family="Times,serif" font-size="14.00">IAT</text>
<text text-anchor="middle" x="629" y="-256.31" font-family="Times,serif" font-size="14.00">Notification</text>
</a>
</g>
</g>
<!-- node_9&#45;&gt;node_15 -->
<g id="edge9" class="edge">
<title>node_9&#45;&gt;node_15</title>
<path fill="none" stroke="black" d="M433.43,-270.84C472.85,-270.17 533.65,-269.13 576.79,-268.39"/>
<polygon fill="black" stroke="black" points="576.68,-271.87 586.62,-268.2 576.56,-264.87 576.68,-271.87"/>
</g>
<!-- node_10 -->
<g id="node15" class="node">
<title>node_10</title>
<g id="a_node15"><a xlink:href="http://software.imdea.org/Conferences/ICLP2016/" xlink:title="International Conference on Logic Programming" target="_blank">
<polygon fill="none" stroke="black" points="433,-241.01 353,-241.01 353,-188.01 433,-188.01 433,-241.01"/>
<text text-anchor="middle" x="393" y="-225.81" font-family="Times,serif" font-size="14.00">ICLP</text>
<text text-anchor="middle" x="393" y="-210.81" font-family="Times,serif" font-size="14.00">Abstracts</text>
<text text-anchor="middle" x="393" y="-195.81" font-family="Times,serif" font-size="14.00">Submission</text>
</a>
</g>
</g>
<!-- node_18 -->
<g id="node25" class="node">
<title>node_18</title>
<g id="a_node25"><a xlink:href="http://software.imdea.org/Conferences/ICLP2016/" xlink:title="International Conference on Logic Programming" target="_blank">
<polygon fill="none" stroke="black" points="670,-237.51 588,-237.51 588,-199.51 670,-199.51 670,-237.51"/>
<text text-anchor="middle" x="629" y="-222.31" font-family="Times,serif" font-size="14.00">ICLP</text>
<text text-anchor="middle" x="629" y="-207.31" font-family="Times,serif" font-size="14.00">Notification</text>
</a>
</g>
</g>
<!-- node_10&#45;&gt;node_18 -->
<g id="edge10" class="edge">
<title>node_10&#45;&gt;node_18</title>
<path fill="none" stroke="black" d="M433.43,-215.19C472.85,-215.86 533.65,-216.9 576.79,-217.64"/>
<polygon fill="black" stroke="black" points="576.56,-221.15 586.62,-217.82 576.68,-214.15 576.56,-221.15"/>
</g>
<!-- node_11 -->
<g id="node16" class="node">
<title>node_11</title>
<g id="a_node16"><a xlink:href="https://bmvc2020-conference.com" xlink:title="British Machine Vision Conference" target="_blank">
<polygon fill="none" stroke="black" points="433,-404.01 353,-404.01 353,-351.01 433,-351.01 433,-404.01"/>
<text text-anchor="middle" x="393" y="-388.81" font-family="Times,serif" font-size="14.00">BMVC</text>
<text text-anchor="middle" x="393" y="-373.81" font-family="Times,serif" font-size="14.00">Abstracts</text>
<text text-anchor="middle" x="393" y="-358.81" font-family="Times,serif" font-size="14.00">Submission</text>
</a>
</g>
</g>
<!-- node_22 -->
<g id="node30" class="node">
<title>node_22</title>
<g id="a_node30"><a xlink:href="https://bmvc2020-conference.com" xlink:title="British Machine Vision Conference" target="_blank">
<polygon fill="none" stroke="black" points="788,-409.51 706,-409.51 706,-371.51 788,-371.51 788,-409.51"/>
<text text-anchor="middle" x="747" y="-394.31" font-family="Times,serif" font-size="14.00">BMVC</text>
<text text-anchor="middle" x="747" y="-379.31" font-family="Times,serif" font-size="14.00">Notification</text>
</a>
</g>
</g>
<!-- node_11&#45;&gt;node_22 -->
<g id="edge11" class="edge">
<title>node_11&#45;&gt;node_22</title>
<path fill="none" stroke="black" d="M433.35,-378.97C497.3,-381.33 623.73,-386 694.66,-388.62"/>
<polygon fill="black" stroke="black" points="694.43,-392.15 704.55,-389.02 694.68,-385.15 694.43,-392.15"/>
</g>
<!-- order_node_5 -->
<!-- order_node_4&#45;&gt;order_node_5 -->
<!-- node_12 -->
<g id="node18" class="node">
<title>node_12</title>
<g id="a_node18"><a xlink:href="https://neurips.cc" xlink:title="Conference on Neural Information Processing Systems" target="_blank">
<polygon fill="none" stroke="black" points="551,-480.01 471,-480.01 471,-427.01 551,-427.01 551,-480.01"/>
<text text-anchor="middle" x="511" y="-464.81" font-family="Times,serif" font-size="14.00">NeurIPS</text>
<text text-anchor="middle" x="511" y="-449.81" font-family="Times,serif" font-size="14.00">Abstracts</text>
<text text-anchor="middle" x="511" y="-434.81" font-family="Times,serif" font-size="14.00">Submission</text>
</a>
</g>
</g>
<!-- node_28 -->
<g id="node38" class="node">
<title>node_28</title>
<g id="a_node38"><a xlink:href="https://neurips.cc" xlink:title="Conference on Neural Information Processing Systems" target="_blank">
<polygon fill="none" stroke="black" points="1024,-409.51 942,-409.51 942,-371.51 1024,-371.51 1024,-409.51"/>
<text text-anchor="middle" x="983" y="-394.31" font-family="Times,serif" font-size="14.00">NeurIPS</text>
<text text-anchor="middle" x="983" y="-379.31" font-family="Times,serif" font-size="14.00">Notification</text>
</a>
</g>
</g>
<!-- node_12&#45;&gt;node_28 -->
<g id="edge12" class="edge">
<title>node_12&#45;&gt;node_28</title>
<path fill="none" stroke="black" d="M551.33,-454.87C606.4,-456.13 709.48,-456.09 796,-442.51 842.78,-435.17 894.55,-420.11 931.57,-408.07"/>
<polygon fill="black" stroke="black" points="932.2,-411.22 940.6,-404.77 930.01,-404.57 932.2,-411.22"/>
</g>
<!-- order_node_6 -->
<!-- order_node_5&#45;&gt;order_node_6 -->
<!-- node_19 -->
<g id="node26" class="node">
<title>node_19</title>
<polygon fill="none" stroke="black" points="669,-90.51 589,-90.51 589,-52.51 669,-52.51 669,-90.51"/>
<text text-anchor="middle" x="629" y="-75.31" font-family="Times,serif" font-size="14.00">AIIDE</text>
<text text-anchor="middle" x="629" y="-60.31" font-family="Times,serif" font-size="14.00">Submission</text>
</g>
<!-- order_node_7 -->
<!-- order_node_6&#45;&gt;order_node_7 -->
<!-- node_20 -->
<g id="node28" class="node">
<title>node_20</title>
<g id="a_node28"><a xlink:href="http://sbgames.org/" xlink:title="Simposio Brasileiro de Games e Entretenimento Digital" target="_blank">
<polygon fill="none" stroke="black" points="787,-360.01 707,-360.01 707,-307.01 787,-307.01 787,-360.01"/>
<text text-anchor="middle" x="747" y="-344.81" font-family="Times,serif" font-size="14.00">SBGames</text>
<text text-anchor="middle" x="747" y="-329.81" font-family="Times,serif" font-size="14.00">Abstracts</text>
<text text-anchor="middle" x="747" y="-314.81" font-family="Times,serif" font-size="14.00">Submission</text>
</a>
</g>
</g>
<!-- node_23 -->
<g id="node32" class="node">
<title>node_23</title>
<g id="a_node32"><a xlink:href="http://sbgames.org/" xlink:title="Simposio Brasileiro de Games e Entretenimento Digital" target="_blank">
<polygon fill="none" stroke="black" points="906,-352.51 824,-352.51 824,-314.51 906,-314.51 906,-352.51"/>
<text text-anchor="middle" x="865" y="-337.31" font-family="Times,serif" font-size="14.00">SBGames</text>
<text text-anchor="middle" x="865" y="-322.31" font-family="Times,serif" font-size="14.00">Notification</text>
</a>
</g>
</g>
<!-- node_20&#45;&gt;node_23 -->
<g id="edge13" class="edge">
<title>node_20&#45;&gt;node_23</title>
<path fill="none" stroke="black" d="M787.27,-333.51C795.41,-333.51 804.09,-333.51 812.59,-333.51"/>
<polygon fill="black" stroke="black" points="812.58,-337.01 822.58,-333.51 812.58,-330.01 812.58,-337.01"/>
</g>
<!-- order_node_8 -->
<!-- order_node_7&#45;&gt;order_node_8 -->
<!-- order_node_9 -->
<!-- order_node_8&#45;&gt;order_node_9 -->
<!-- node_24 -->
<g id="node34" class="node">
<title>node_24</title>
<g id="a_node34"><a xlink:href="http://www.icra2017.org/" xlink:title="International Conference on Robotics and Automation" target="_blank">
<polygon fill="none" stroke="black" points="1023,-171.51 943,-171.51 943,-133.51 1023,-133.51 1023,-171.51"/>
<text text-anchor="middle" x="983" y="-156.31" font-family="Times,serif" font-size="14.00">ICRA</text>
<text text-anchor="middle" x="983" y="-141.31" font-family="Times,serif" font-size="14.00">Submission</text>
</a>
</g>
</g>
<!-- node_39 -->
<g id="node53" class="node">
<title>node_39</title>
<g id="a_node53"><a xlink:href="http://www.icra2017.org/" xlink:title="International Conference on Robotics and Automation" target="_blank">
<polygon fill="none" stroke="black" points="1472,-79.51 1390,-79.51 1390,-41.51 1472,-41.51 1472,-79.51"/>
<text text-anchor="middle" x="1431" y="-64.31" font-family="Times,serif" font-size="14.00">ICRA</text>
<text text-anchor="middle" x="1431" y="-49.31" font-family="Times,serif" font-size="14.00">Notification</text>
</a>
</g>
</g>
<!-- node_24&#45;&gt;node_39 -->
<g id="edge14" class="edge">
<title>node_24&#45;&gt;node_39</title>
<path fill="none" stroke="black" d="M1002.03,-133.15C1032.85,-101.64 1099.22,-40.49 1170,-17.51 1240.78,5.47 1326.58,-18.11 1379.74,-38.37"/>
<polygon fill="black" stroke="black" points="1378.33,-41.97 1388.92,-42.36 1380.89,-35.45 1378.33,-41.97"/>
</g>
<!-- node_25 -->
<g id="node35" class="node">
<title>node_25</title>
<g id="a_node35"><a xlink:href="http://www.sigapp.org/sac/" xlink:title="Symposium On Applied Computing" target="_blank">
<polygon fill="none" stroke="black" points="1023,-300.01 943,-300.01 943,-247.01 1023,-247.01 1023,-300.01"/>
<text text-anchor="middle" x="983" y="-284.81" font-family="Times,serif" font-size="14.00">SAC</text>
<text text-anchor="middle" x="983" y="-269.81" font-family="Times,serif" font-size="14.00">Abstracts</text>
<text text-anchor="middle" x="983" y="-254.81" font-family="Times,serif" font-size="14.00">Submission</text>
</a>
</g>
</g>
<!-- node_32 -->
<g id="node44" class="node">
<title>node_32</title>
<g id="a_node44"><a xlink:href="http://www.sigapp.org/sac/" xlink:title="Symposium On Applied Computing" target="_blank">
<polygon fill="none" stroke="black" points="1260,-292.51 1178,-292.51 1178,-254.51 1260,-254.51 1260,-292.51"/>
<text text-anchor="middle" x="1219" y="-277.31" font-family="Times,serif" font-size="14.00">SAC</text>
<text text-anchor="middle" x="1219" y="-262.31" font-family="Times,serif" font-size="14.00">Notification</text>
</a>
</g>
</g>
<!-- node_25&#45;&gt;node_32 -->
<g id="edge15" class="edge">
<title>node_25&#45;&gt;node_32</title>
<path fill="none" stroke="black" d="M1023.43,-273.51C1062.85,-273.51 1123.65,-273.51 1166.79,-273.51"/>
<polygon fill="black" stroke="black" points="1166.62,-277.01 1176.62,-273.51 1166.62,-270.01 1166.62,-277.01"/>
</g>
<!-- node_26 -->
<g id="node36" class="node">
<title>node_26</title>
<g id="a_node36"><a xlink:href="http://www.aaai.org/Conferences/conferences.php" xlink:title="Association for the Advancement of Artificial Intelligence" target="_blank">
<polygon fill="none" stroke="black" points="1023,-236.01 943,-236.01 943,-183.01 1023,-183.01 1023,-236.01"/>
<text text-anchor="middle" x="983" y="-220.81" font-family="Times,serif" font-size="14.00">AAAI</text>
<text text-anchor="middle" x="983" y="-205.81" font-family="Times,serif" font-size="14.00">Abstracts</text>
<text text-anchor="middle" x="983" y="-190.81" font-family="Times,serif" font-size="14.00">Submission</text>
</a>
</g>
</g>
<!-- node_31 -->
<g id="node43" class="node">
<title>node_31</title>
<g id="a_node43"><a xlink:href="http://www.aaai.org/Conferences/conferences.php" xlink:title="Association for the Advancement of Artificial Intelligence" target="_blank">
<polygon fill="none" stroke="black" points="1260,-114.51 1178,-114.51 1178,-76.51 1260,-76.51 1260,-114.51"/>
<text text-anchor="middle" x="1219" y="-99.31" font-family="Times,serif" font-size="14.00">AAAI</text>
<text text-anchor="middle" x="1219" y="-84.31" font-family="Times,serif" font-size="14.00">Notification</text>
</a>
</g>
</g>
<!-- node_26&#45;&gt;node_31 -->
<g id="edge16" class="edge">
<title>node_26&#45;&gt;node_31</title>
<path fill="none" stroke="black" d="M1023.43,-190.3C1063.31,-170.88 1125.06,-140.79 1168.27,-119.74"/>
<polygon fill="black" stroke="black" points="1169.56,-122.52 1177.02,-114.99 1166.49,-116.23 1169.56,-122.52"/>
</g>
<!-- node_27 -->
<g id="node37" class="node">
<title>node_27</title>
<g id="a_node37"><a xlink:href="http://eumas-at2016.webs.upv.es/EUMAS2016.html" xlink:title="European Conference on Multi&#45;Agent Systems" target="_blank">
<polygon fill="none" stroke="black" points="1023,-360.51 943,-360.51 943,-322.51 1023,-322.51 1023,-360.51"/>
<text text-anchor="middle" x="983" y="-345.31" font-family="Times,serif" font-size="14.00">EUMAS</text>
<text text-anchor="middle" x="983" y="-330.31" font-family="Times,serif" font-size="14.00">Submission</text>
</a>
</g>
</g>
<!-- node_29 -->
<g id="node40" class="node">
<title>node_29</title>
<g id="a_node40"><a xlink:href="http://eumas-at2016.webs.upv.es/EUMAS2016.html" xlink:title="European Conference on Multi&#45;Agent Systems" target="_blank">
<polygon fill="none" stroke="black" points="1142,-397.51 1060,-397.51 1060,-359.51 1142,-359.51 1142,-397.51"/>
<text text-anchor="middle" x="1101" y="-382.31" font-family="Times,serif" font-size="14.00">EUMAS</text>
<text text-anchor="middle" x="1101" y="-367.31" font-family="Times,serif" font-size="14.00">Notification</text>
</a>
</g>
</g>
<!-- node_27&#45;&gt;node_29 -->
<g id="edge17" class="edge">
<title>node_27&#45;&gt;node_29</title>
<path fill="none" stroke="black" d="M1023.27,-354.04C1031.59,-356.69 1040.48,-359.53 1049.16,-362.3"/>
<polygon fill="black" stroke="black" points="1047.99,-365.92 1058.58,-365.62 1050.12,-359.25 1047.99,-365.92"/>
</g>
<!-- order_node_10 -->
<!-- order_node_9&#45;&gt;order_node_10 -->
<!-- node_30 -->
<g id="node41" class="node">
<title>node_30</title>
<g id="a_node41"><a xlink:href="http://www.icaart.org/" xlink:title="International Conference on Agents and Artificial Intelligence" target="_blank">
<polygon fill="none" stroke="black" points="1141,-337.51 1061,-337.51 1061,-299.51 1141,-299.51 1141,-337.51"/>
<text text-anchor="middle" x="1101" y="-322.31" font-family="Times,serif" font-size="14.00">ICAART</text>
<text text-anchor="middle" x="1101" y="-307.31" font-family="Times,serif" font-size="14.00">Submission</text>
</a>
</g>
</g>
<!-- node_37 -->
<g id="node49" class="node">
<title>node_37</title>
<g id="a_node49"><a xlink:href="http://www.icaart.org/" xlink:title="International Conference on Agents and Artificial Intelligence" target="_blank">
<polygon fill="none" stroke="black" points="1260,-341.51 1178,-341.51 1178,-303.51 1260,-303.51 1260,-341.51"/>
<text text-anchor="middle" x="1219" y="-326.31" font-family="Times,serif" font-size="14.00">ICAART</text>
<text text-anchor="middle" x="1219" y="-311.31" font-family="Times,serif" font-size="14.00">Notification</text>
</a>
</g>
</g>
<!-- node_30&#45;&gt;node_37 -->
<g id="edge18" class="edge">
<title>node_30&#45;&gt;node_37</title>
<path fill="none" stroke="black" d="M1141.27,-319.87C1149.5,-320.15 1158.29,-320.45 1166.87,-320.75"/>
<polygon fill="black" stroke="black" points="1166.47,-324.27 1176.58,-321.12 1166.71,-317.28 1166.47,-324.27"/>
</g>
<!-- order_node_11 -->
<!-- order_node_10&#45;&gt;order_node_11 -->
<!-- node_33 -->
<g id="node45" class="node">
<title>node_33</title>
<g id="a_node45"><a xlink:href="http://www.icaps-conference.org/" xlink:title="International Conference on Automated Planning and Scheduling" target="_blank">
<polygon fill="none" stroke="black" points="1259,-243.01 1179,-243.01 1179,-190.01 1259,-190.01 1259,-243.01"/>
<text text-anchor="middle" x="1219" y="-227.81" font-family="Times,serif" font-size="14.00">ICAPS</text>
<text text-anchor="middle" x="1219" y="-212.81" font-family="Times,serif" font-size="14.00">Abstracts</text>
<text text-anchor="middle" x="1219" y="-197.81" font-family="Times,serif" font-size="14.00">Submission</text>
</a>
</g>
</g>
<!-- node_40 -->
<g id="node54" class="node">
<title>node_40</title>
<g id="a_node54"><a xlink:href="http://www.icaps-conference.org/" xlink:title="International Conference on Automated Planning and Scheduling" target="_blank">
<polygon fill="none" stroke="black" points="1472,-226.51 1390,-226.51 1390,-188.51 1472,-188.51 1472,-226.51"/>
<text text-anchor="middle" x="1431" y="-211.31" font-family="Times,serif" font-size="14.00">ICAPS</text>
<text text-anchor="middle" x="1431" y="-196.31" font-family="Times,serif" font-size="14.00">Notification</text>
</a>
</g>
</g>
<!-- node_33&#45;&gt;node_40 -->
<g id="edge19" class="edge">
<title>node_33&#45;&gt;node_40</title>
<path fill="none" stroke="black" d="M1259.5,-214.82C1293.2,-213.38 1341.89,-211.29 1378.62,-209.71"/>
<polygon fill="black" stroke="black" points="1378.76,-213.17 1388.61,-209.24 1378.46,-206.18 1378.76,-213.17"/>
</g>
<!-- node_34 -->
<g id="node46" class="node">
<title>node_34</title>
<g id="a_node46"><a xlink:href="http://www.ifaamas.org/" xlink:title="International Conference on Autonomous Agents and Multiagent Systems" target="_blank">
<polygon fill="none" stroke="black" points="1259,-179.01 1179,-179.01 1179,-126.01 1259,-126.01 1259,-179.01"/>
<text text-anchor="middle" x="1219" y="-163.81" font-family="Times,serif" font-size="14.00">AAMAS</text>
<text text-anchor="middle" x="1219" y="-148.81" font-family="Times,serif" font-size="14.00">Abstracts</text>
<text text-anchor="middle" x="1219" y="-133.81" font-family="Times,serif" font-size="14.00">Submission</text>
</a>
</g>
</g>
<!-- node_41 -->
<g id="node55" class="node">
<title>node_41</title>
<g id="a_node55"><a xlink:href="http://www.ifaamas.org/" xlink:title="International Conference on Autonomous Agents and Multiagent Systems" target="_blank">
<polygon fill="none" stroke="black" points="1472,-177.51 1390,-177.51 1390,-139.51 1472,-139.51 1472,-177.51"/>
<text text-anchor="middle" x="1431" y="-162.31" font-family="Times,serif" font-size="14.00">AAMAS</text>
<text text-anchor="middle" x="1431" y="-147.31" font-family="Times,serif" font-size="14.00">Notification</text>
</a>
</g>
</g>
<!-- node_34&#45;&gt;node_41 -->
<g id="edge20" class="edge">
<title>node_34&#45;&gt;node_41</title>
<path fill="none" stroke="black" d="M1259.5,-153.64C1293.2,-154.6 1341.89,-156 1378.62,-157.04"/>
<polygon fill="black" stroke="black" points="1378.51,-160.57 1388.61,-157.36 1378.71,-153.57 1378.51,-160.57"/>
</g>
<!-- node_35 -->
<g id="node47" class="node">
<title>node_35</title>
<g id="a_node47"><a xlink:href="http://www.kr.org/" xlink:title="International Conference on Principles of Knowledge Representation and Reasoning" target="_blank">
<polygon fill="none" stroke="black" points="1259,-481.01 1179,-481.01 1179,-428.01 1259,-428.01 1259,-481.01"/>
<text text-anchor="middle" x="1219" y="-465.81" font-family="Times,serif" font-size="14.00">KR</text>
<text text-anchor="middle" x="1219" y="-450.81" font-family="Times,serif" font-size="14.00">Abstracts</text>
<text text-anchor="middle" x="1219" y="-435.81" font-family="Times,serif" font-size="14.00">Submission</text>
</a>
</g>
</g>
<!-- node_43 -->
<g id="node58" class="node">
<title>node_43</title>
<g id="a_node58"><a xlink:href="http://www.kr.org/" xlink:title="International Conference on Principles of Knowledge Representation and Reasoning" target="_blank">
<polygon fill="none" stroke="black" points="1590,-458.51 1508,-458.51 1508,-420.51 1590,-420.51 1590,-458.51"/>
<text text-anchor="middle" x="1549" y="-443.31" font-family="Times,serif" font-size="14.00">KR</text>
<text text-anchor="middle" x="1549" y="-428.31" font-family="Times,serif" font-size="14.00">Notification</text>
</a>
</g>
</g>
<!-- node_35&#45;&gt;node_43 -->
<g id="edge21" class="edge">
<title>node_35&#45;&gt;node_43</title>
<path fill="none" stroke="black" d="M1259.24,-452.72C1318.55,-450.01 1431.08,-444.86 1496.78,-441.86"/>
<polygon fill="black" stroke="black" points="1496.86,-445.31 1506.69,-441.36 1496.54,-438.32 1496.86,-445.31"/>
</g>
<!-- node_36 -->
<g id="node48" class="node">
<title>node_36</title>
<g id="a_node48"><a xlink:href="http://www.flairs.com/" xlink:title="Florida Artificial Intelligence Research Society" target="_blank">
<polygon fill="none" stroke="black" points="1259,-65.51 1179,-65.51 1179,-27.51 1259,-27.51 1259,-65.51"/>
<text text-anchor="middle" x="1219" y="-50.31" font-family="Times,serif" font-size="14.00">FLAIRS</text>
<text text-anchor="middle" x="1219" y="-35.31" font-family="Times,serif" font-size="14.00">Submission</text>
</a>
</g>
</g>
<!-- node_42 -->
<g id="node56" class="node">
<title>node_42</title>
<g id="a_node56"><a xlink:href="http://www.flairs.com/" xlink:title="Florida Artificial Intelligence Research Society" target="_blank">
<polygon fill="none" stroke="black" points="1472,-128.51 1390,-128.51 1390,-90.51 1472,-90.51 1472,-128.51"/>
<text text-anchor="middle" x="1431" y="-113.31" font-family="Times,serif" font-size="14.00">FLAIRS</text>
<text text-anchor="middle" x="1431" y="-98.31" font-family="Times,serif" font-size="14.00">Notification</text>
</a>
</g>
</g>
<!-- node_36&#45;&gt;node_42 -->
<g id="edge22" class="edge">
<title>node_36&#45;&gt;node_42</title>
<path fill="none" stroke="black" d="M1259.5,-58.36C1293.35,-68.52 1342.31,-83.21 1379.09,-94.24"/>
<polygon fill="black" stroke="black" points="1378.02,-97.87 1388.61,-97.39 1380.03,-91.17 1378.02,-97.87"/>
</g>
<!-- node_38 -->
<g id="node50" class="node">
<title>node_38</title>
<g id="a_node50"><a xlink:href="https://www.thecvf.com" xlink:title="Conference on Computer Vision and Pattern Recognition" target="_blank">
<polygon fill="none" stroke="black" points="1259,-417.01 1179,-417.01 1179,-364.01 1259,-364.01 1259,-417.01"/>
<text text-anchor="middle" x="1219" y="-401.81" font-family="Times,serif" font-size="14.00">CVPR</text>
<text text-anchor="middle" x="1219" y="-386.81" font-family="Times,serif" font-size="14.00">Abstracts</text>
<text text-anchor="middle" x="1219" y="-371.81" font-family="Times,serif" font-size="14.00">Submission</text>
</a>
</g>
</g>
<!-- node_44 -->
<g id="node59" class="node">
<title>node_44</title>
<g id="a_node59"><a xlink:href="https://www.thecvf.com" xlink:title="Conference on Computer Vision and Pattern Recognition" target="_blank">
<polygon fill="none" stroke="black" points="1590,-409.51 1508,-409.51 1508,-371.51 1590,-371.51 1590,-409.51"/>
<text text-anchor="middle" x="1549" y="-394.31" font-family="Times,serif" font-size="14.00">CVPR</text>
<text text-anchor="middle" x="1549" y="-379.31" font-family="Times,serif" font-size="14.00">Notification</text>
</a>
</g>
</g>
<!-- node_38&#45;&gt;node_44 -->
<g id="edge23" class="edge">
<title>node_38&#45;&gt;node_44</title>
<path fill="none" stroke="black" d="M1259.24,-390.51C1318.55,-390.51 1431.08,-390.51 1496.78,-390.51"/>
<polygon fill="black" stroke="black" points="1496.69,-394.01 1506.69,-390.51 1496.69,-387.01 1496.69,-394.01"/>
</g>
<!-- order_node_12 -->
<!-- order_node_11&#45;&gt;order_node_12 -->
<!-- order_node_13 -->
<!-- order_node_12&#45;&gt;order_node_13 -->
</g>
</svg>
